<?xml version="1.0" encoding="UTF-8" standalone="no"?>
<!DOCTYPE svg PUBLIC "-//W3C//DTD SVG 1.1//EN"
 "http://www.w3.org/Graphics/SVG/1.1/DTD/svg11.dtd">
<!-- Generated by graphviz version 9.0.0 (20230911.1827)
 -->
<!-- Pages: 1 -->
<svg width="444pt" height="182pt"
 viewBox="0.00 0.00 443.52 182.14" xmlns="http://www.w3.org/2000/svg" xmlns:xlink="http://www.w3.org/1999/xlink">
<g id="graph0" class="graph" transform="scale(1 1) rotate(0) translate(4 178.14)">
<polygon fill="white" stroke="none" points="-4,4 -4,-178.14 439.52,-178.14 439.52,4 -4,4"/>
<!-- MSE -->
<g id="node1" class="node">
<title>MSE</title>
<ellipse fill="none" stroke="black" cx="320.79" cy="-87.07" rx="114.73" ry="39.07"/>
<text text-anchor="middle" x="320.79" y="-97.39" font-family="Times New Roman,serif" font-size="14.00">MSE</text>
<text text-anchor="middle" x="320.79" y="-81.64" font-family="Times New Roman,serif" font-size="14.00">(MeanSquaredErrorNode)</text>
<text text-anchor="middle" x="320.79" y="-65.89" font-family="Times New Roman,serif" font-size="14.00">4.0</text>
</g>
<!-- a -->
<g id="node2" class="node">
<title>a</title>
<ellipse fill="none" stroke="black" cx="85.03" cy="-135.07" rx="85.03" ry="39.07"/>
<text text-anchor="middle" x="85.03" y="-145.39" font-family="Times New Roman,serif" font-size="14.00">a</text>
<text text-anchor="middle" x="85.03" y="-129.64" font-family="Times New Roman,serif" font-size="14.00">(DataStreamNode)</text>
<text text-anchor="middle" x="85.03" y="-113.89" font-family="Times New Roman,serif" font-size="14.00">2</text>
</g>
<!-- a&#45;&gt;MSE -->
<g id="edge1" class="edge">
<title>a&#45;&gt;MSE</title>
<path fill="none" stroke="black" d="M163.22,-119.22C178.45,-116.09 194.71,-112.75 210.77,-109.45"/>
<polygon fill="black" stroke="black" points="211.26,-112.93 220.35,-107.49 209.85,-106.07 211.26,-112.93"/>
</g>
<!-- b -->
<g id="node3" class="node">
<title>b</title>
<ellipse fill="none" stroke="black" cx="85.03" cy="-39.07" rx="85.03" ry="39.07"/>
<text text-anchor="middle" x="85.03" y="-49.39" font-family="Times New Roman,serif" font-size="14.00">b</text>
<text text-anchor="middle" x="85.03" y="-33.64" font-family="Times New Roman,serif" font-size="14.00">(DataStreamNode)</text>
<text text-anchor="middle" x="85.03" y="-17.89" font-family="Times New Roman,serif" font-size="14.00">0</text>
</g>
<!-- b&#45;&gt;MSE -->
<g id="edge2" class="edge">
<title>b&#45;&gt;MSE</title>
<path fill="none" stroke="black" d="M163.22,-54.92C178.45,-58.05 194.71,-61.38 210.77,-64.68"/>
<polygon fill="black" stroke="black" points="209.85,-68.07 220.35,-66.65 211.26,-61.21 209.85,-68.07"/>
</g>
</g>
</svg>
